<svg xmlns="http://www.w3.org/2000/svg" width="124" height="124" viewBox="0 0 124 124">
  <g id="Group_88" data-name="Group 88" transform="translate(-345 -1679)">
    <circle id="Ellipse_64" data-name="Ellipse 64" cx="62" cy="62" r="62" transform="translate(345 1679)" fill="#e9e2bc"/>
    <g id="checklist" transform="translate(351.605 1682.606)">
      <path id="Path_21" data-name="Path 21" d="M23,27.127A4.127,4.127,0,0,1,27.127,23H57.394l17.2,14.445V87.66a4.127,4.127,0,0,1-4.127,4.127H27.127A4.127,4.127,0,0,1,23,87.66Z" fill="#fff"/>
      <path id="Path_22" data-name="Path 22" d="M55,23V33.318a4.127,4.127,0,0,0,4.127,4.127H72.2Z" transform="translate(2.394)" fill="#f0f1f1"/>
      <path id="Path_23" data-name="Path 23" d="M77,42.285,82.374,31l5.374,11.285v41.38H77Z" transform="translate(4.039 0.598)" fill="#f4d0a1"/>
      <path id="Path_24" data-name="Path 24" d="M87.374,48.2V42.285L82,31V48.2Z" transform="translate(4.413 0.598)" fill="#edbc7c"/>
      <path id="Path_25" data-name="Path 25" d="M87.748,84.15a3.224,3.224,0,0,1-3.224,3.224h-4.3A3.224,3.224,0,0,1,77,84.15V82H87.748Z" transform="translate(4.039 4.413)" fill="#f79392"/>
      <path id="Path_26" data-name="Path 26" d="M63.272,45.075A1.078,1.078,0,0,1,62.2,46.15H46.075a1.075,1.075,0,1,1,0-2.15H62.2A1.078,1.078,0,0,1,63.272,45.075Zm-6.449,5.374a1.078,1.078,0,0,1-1.075,1.075H46.075a1.075,1.075,0,1,1,0-2.15h9.673A1.078,1.078,0,0,1,56.823,50.449Zm6.449,8.6A1.078,1.078,0,0,1,62.2,60.122H46.075a1.075,1.075,0,1,1,0-2.15H62.2A1.078,1.078,0,0,1,63.272,59.047Zm-6.449,5.374A1.078,1.078,0,0,1,55.748,65.5H46.075a1.075,1.075,0,0,1,0-2.15h9.673A1.078,1.078,0,0,1,56.823,64.421Zm6.449,8.6A1.078,1.078,0,0,1,62.2,74.095H46.075a1.075,1.075,0,0,1,0-2.15H62.2A1.078,1.078,0,0,1,63.272,73.02Zm-6.449,5.374a1.078,1.078,0,0,1-1.075,1.075H46.075a1.075,1.075,0,0,1,0-2.15h9.673A1.078,1.078,0,0,1,56.823,78.394Z" transform="translate(1.646 1.571)" fill="#102f47"/>
      <path id="Path_27" data-name="Path 27" d="M35.371,52.634l-4.056-4.056a1.075,1.075,0,1,1,1.52-1.52l2.393,2.393,4.621-5.545A1.074,1.074,0,1,1,41.5,45.282Zm0,13.972-4.056-4.056a1.075,1.075,0,1,1,1.52-1.52l2.393,2.393,4.621-5.545A1.074,1.074,0,1,1,41.5,59.254Zm0,13.972-4.056-4.056A1.075,1.075,0,1,1,32.835,75L35.227,77.4l4.621-5.545A1.074,1.074,0,1,1,41.5,73.227Z" transform="translate(0.598 1.535)" fill="#c53a33"/>
      <path id="Path_28" data-name="Path 28" d="M77,79H87.748v3.224H77Z" transform="translate(4.039 4.189)" fill="#facb1b"/>
      <path id="Path_29" data-name="Path 29" d="M77,80h5.374v2.15H77Z" transform="translate(4.039 4.264)" fill="#fbe158"/>
      <path id="Path_30" data-name="Path 30" d="M82.152,30.984l-2,4.191a2.275,2.275,0,0,0,3.992,0Z" transform="translate(4.276 0.597)" fill="#102f47"/>
      <path id="Path_31" data-name="Path 31" d="M85.061,43.143a2.687,2.687,0,0,1-2.594-1.983.094.094,0,0,0-.186,0,2.689,2.689,0,0,1-5.09.294.1.1,0,0,0-.191.038V82.911H87.748V41.493a.1.1,0,0,0-.191-.037,2.689,2.689,0,0,1-2.5,1.687Z" transform="translate(4.039 1.353)" fill="#e78530"/>
      <path id="Path_32" data-name="Path 32" d="M77,82.909V41.522a.105.105,0,0,1,.2-.039,2.687,2.687,0,0,0,5.081-.34.045.045,0,0,1,.089.01V82.909Z" transform="translate(4.039 1.354)" fill="#f3c15f"/>
      <path id="Path_33" data-name="Path 33" d="M77,82v2.15a3.224,3.224,0,0,0,3.224,3.224h2.15V82Z" transform="translate(4.039 4.413)" fill="#f7b4b4"/>
    </g>
  </g>
</svg>
