<svg xmlns="http://www.w3.org/2000/svg" width="45" height="45" viewBox="0 0 45 45">
  <g id="Group_91" data-name="Group 91" transform="translate(-538 -537)">
    <circle id="Ellipse_77" data-name="Ellipse 77" cx="22.5" cy="22.5" r="22.5" transform="translate(538 537)" fill="#c53a33"/>
    <g id="Icon_ionic-ios-megaphone" data-name="Icon ionic-ios-megaphone" transform="matrix(0.966, -0.259, 0.259, 0.966, 540.713, 548.074)">
      <path id="Path_46" data-name="Path 46" d="M5.961,12.4A5.645,5.645,0,0,1,8.635,7.548a.2.2,0,0,0-.1-.369h0a4.746,4.746,0,0,0-4.554,4.29.873.873,0,0,0-.608.916.838.838,0,0,0,.664.91,5.423,5.423,0,0,0,3.761,3.964h0a.268.268,0,0,0,.234-.461A6.124,6.124,0,0,1,5.961,12.4Z" transform="translate(0 -0.479)" fill="#fff"/>
      <path id="Path_47" data-name="Path 47" d="M28.7,6.743c-.061-.166-.129-.32-.2-.473a6.3,6.3,0,0,0-1.334-1.979,3.033,3.033,0,0,0-2.139-.916,2.809,2.809,0,0,0-1.586.479,21.92,21.92,0,0,1-9.464,2.827c-2.563,0-2.421.012-2.421.012a5.762,5.762,0,0,0-.639,10.14c.744.621,1.45.541,1.3,1.364s-1.383,5.992-1.536,7.067-.178,1.69.246,2.212a9.069,9.069,0,0,0,4.179,1.463c1.137,0,.848-.535.848-2.692s-.572-8.094,1.014-8.094c2.968,0,4.517,1.063,6.84,1.948a3.293,3.293,0,0,0,1.235.289,3.032,3.032,0,0,0,2.133-1.118,6.368,6.368,0,0,0,1.334-1.979c.068-.16.135-.32.2-.492a14.351,14.351,0,0,0,.842-5.033A14.359,14.359,0,0,0,28.7,6.743Zm-1.635,9.649c-.393.965-1.082,1.733-1.653,1.733s-1.094-.768-1.487-1.733a12.673,12.673,0,0,1-.756-4.591,12.72,12.72,0,0,1,.756-4.6c.393-.959.916-1.536,1.481-1.536s1.248.584,1.647,1.536a12.382,12.382,0,0,1,.012,9.194Z" transform="translate(-0.608)" fill="#fff"/>
    </g>
  </g>
</svg>
