<svg xmlns="http://www.w3.org/2000/svg" width="124" height="124" viewBox="0 0 124 124">
  <g id="Group_77" data-name="Group 77" transform="translate(-898 -1380)">
    <circle id="Ellipse_60" data-name="Ellipse 60" cx="62" cy="62" r="62" transform="translate(898 1380)" fill="#e9e2bc"/>
    <g id="bag" transform="translate(920.664 1393.995)">
      <path id="Path_7" data-name="Path 7" d="M62.987,14.432A1.336,1.336,0,0,0,62,14H16.667a1.333,1.333,0,0,0-1.328,1.219L10.005,76.557a1.329,1.329,0,0,0,1.328,1.448H56.67A1.333,1.333,0,0,0,58,76.786l5.334-61.338a1.328,1.328,0,0,0-.345-1.016Z" transform="translate(0 4.001)" fill="#e78530"/>
      <path id="Path_8" data-name="Path 8" d="M31.668,31A10.668,10.668,0,1,0,42.335,41.668,10.68,10.68,0,0,0,31.668,31Z" transform="translate(3.668 9.67)" fill="#fff"/>
      <path id="Path_9" data-name="Path 9" d="M29.334,38H32v2.667H29.334ZM24,38h2.667v2.667H24Zm10.668,0h2.667v2.667H34.668Z" transform="translate(4.668 12.004)" fill="#4d4d4d"/>
      <path id="Path_10" data-name="Path 10" d="M42.668,27.335H40V11.254a6.594,6.594,0,0,0-6.587-6.587h-.16a6.594,6.594,0,0,0-6.587,6.587V27.335H24V11.254A9.265,9.265,0,0,1,33.254,2h.159a9.265,9.265,0,0,1,9.255,9.254Z" transform="translate(4.668)" fill="#102f47"/>
      <path id="Path_11" data-name="Path 11" d="M23,20h5.334v2.667H23Zm16,0h5.334v2.667H39Z" transform="translate(4.335 6.002)" fill="#102f47"/>
      <path id="Path_12" data-name="Path 12" d="M52,15.218a1.333,1.333,0,0,0-2.656,0L44.005,76.556a1.331,1.331,0,0,0,2.128,1.181l4.534-3.4,4.534,3.4a1.334,1.334,0,0,0,2.128-1.181L52,15.218Z" transform="translate(11.337 4.002)" fill="#c53a33"/>
      <path id="Path_13" data-name="Path 13" d="M50.328,15.219A1.333,1.333,0,0,0,49,14V74.338l4.534,3.4a1.334,1.334,0,0,0,2.128-1.181L50.328,15.219Z" transform="translate(13.004 4.001)" fill="#e78530"/>
    </g>
  </g>
</svg>
