<svg xmlns="http://www.w3.org/2000/svg" width="124" height="124" viewBox="0 0 124 124">
  <g id="Group_89" data-name="Group 89" transform="translate(-898 -1679)">
    <circle id="Ellipse_63" data-name="Ellipse 63" cx="62" cy="62" r="62" transform="translate(898 1679)" fill="#e9e2bc"/>
    <g id="bed" transform="translate(916.691 1699.431)">
      <path id="Path_34" data-name="Path 34" d="M61.979,15.882S55.521,11.91,39.911,11.91s-22.068,3.972-22.068,3.972L15.21,20.3l.6,22.421L60.935,44.5l5.752-8.915Z" transform="translate(3.397 0)" fill="#f3c15f"/>
      <path id="Path_35" data-name="Path 35" d="M28.449,32.02,26.36,30.652l2.089-1.383A3.354,3.354,0,0,1,31.818,25.9H37.5a3.354,3.354,0,0,1,3.369,3.369l2.089,1.383L40.866,32.02l-5.694,2.251Z" transform="translate(8.651 6.592)" fill="#d0e1e8"/>
      <path id="Path_36" data-name="Path 36" d="M72.149,47.073v-31.2a4.178,4.178,0,0,0-8.342,0V47.794Zm-52.477.721V15.869a4.178,4.178,0,0,0-8.342,0v31.2Z" transform="translate(1.569 0.013)" fill="#e78530"/>
      <path id="Path_37" data-name="Path 37" d="M16,32.8V28.943a4.678,4.678,0,0,1,4.693-4.693h7.959a4.693,4.693,0,0,1,4.708,4.693V32.8l-8.68,3.06Zm29.747,0V28.943a4.693,4.693,0,0,1,4.708-4.693h7.959a4.678,4.678,0,0,1,4.664,4.693V32.8l-8.68,3.06Z" transform="translate(3.77 5.814)" fill="#f2f0ef"/>
      <path id="Path_38" data-name="Path 38" d="M11.33,42.492V36.9A6.826,6.826,0,0,1,18.2,30.06H65.279A6.826,6.826,0,0,1,72.12,36.9v5.591L41.739,47.45Z" transform="translate(1.569 8.552)" fill="#f0f4f7"/>
      <path id="Path_39" data-name="Path 39" d="M11.649,38.51A3.634,3.634,0,0,0,8,42.173V56.135a2.56,2.56,0,0,0,2.56,2.56c1.471,0,1.971-1.28,2.56-2.56l2.942-6.385H70.5l2.942,6.385c.588,1.28,1.133,2.56,2.56,2.56a2.56,2.56,0,0,0,2.619-2.575V42.173a3.634,3.634,0,0,0-3.649-3.649Z" transform="translate(0 12.534)" fill="#f3c15f"/>
      <path id="Path_40" data-name="Path 40" d="M43.266,19.9a1.839,1.839,0,1,0-1.839,1.839A1.839,1.839,0,0,0,43.266,19.9Zm-6.694,0a1.839,1.839,0,1,0-1.839,1.839A1.839,1.839,0,0,0,36.572,19.9Zm-6.694,0a1.839,1.839,0,1,0-1.839,1.839A1.839,1.839,0,0,0,29.878,19.9Z" transform="translate(8.576 2.898)" fill="#e78530"/>
    </g>
  </g>
</svg>
