<svg xmlns="http://www.w3.org/2000/svg" width="124" height="124" viewBox="0 0 124 124">
  <g id="Group_76" data-name="Group 76" transform="translate(-345 -1380)">
    <circle id="Ellipse_59" data-name="Ellipse 59" cx="62" cy="62" r="62" transform="translate(345 1380)" fill="#e9e2bc"/>
    <g id="calendar" transform="translate(366.6 1397.6)">
      <path id="Path_4" data-name="Path 4" d="M9.333,24.466c0-3.458,0-5.187.565-6.552A7.422,7.422,0,0,1,13.916,13.9c1.364-.565,3.092-.565,6.551-.565H61.289c3.458,0,5.187,0,6.551.565a7.422,7.422,0,0,1,4.018,4.016c.565,1.364.565,3.094.565,6.552V59.721c0,3.458,0,5.188-.565,6.552a7.422,7.422,0,0,1-4.018,4.016c-1.364.565-3.092.565-6.551.565H20.466c-3.458,0-5.187,0-6.551-.565A7.423,7.423,0,0,1,9.9,66.273c-.565-1.364-.565-3.094-.565-6.552Z" transform="translate(0.522 2.089)" fill="#f2f0ef"/>
      <path id="Path_5" data-name="Path 5" d="M20.923,12H61.877c1.673,0,3.023,0,4.122.075a9.543,9.543,0,0,1,3.074.632,9.277,9.277,0,0,1,5.021,5.02,9.581,9.581,0,0,1,.63,3.076c.075,1.1.075,2.448.075,4.121V60.31c0,1.673,0,3.023-.075,4.122a9.58,9.58,0,0,1-.63,3.074,9.277,9.277,0,0,1-5.021,5.021,9.581,9.581,0,0,1-3.076.63c-1.1.075-2.448.075-4.121.075H20.923c-1.673,0-3.023,0-4.122-.075a9.58,9.58,0,0,1-3.074-.63,9.278,9.278,0,0,1-5.021-5.021,9.581,9.581,0,0,1-.63-3.076C8,63.334,8,61.984,8,60.311V24.923C8,23.25,8,21.9,8.075,20.8a9.58,9.58,0,0,1,.63-3.074,9.278,9.278,0,0,1,5.021-5.02,9.544,9.544,0,0,1,3.076-.632C17.9,12,19.249,12,20.922,12Zm-3.869,3.777a5.989,5.989,0,0,0-1.907.358,5.567,5.567,0,0,0-3.013,3.013,6.029,6.029,0,0,0-.358,1.907c-.065.957-.065,2.181-.065,3.934V60.245c0,1.753,0,2.978.065,3.934a5.989,5.989,0,0,0,.358,1.907A5.567,5.567,0,0,0,15.148,69.1a6.029,6.029,0,0,0,1.907.358c.957.065,2.181.065,3.934.065H61.811c1.753,0,2.978,0,3.934-.065a5.989,5.989,0,0,0,1.907-.358,5.567,5.567,0,0,0,3.013-3.013,6.029,6.029,0,0,0,.358-1.907c.065-.957.065-2.181.065-3.934V24.988c0-1.753,0-2.978-.065-3.934a5.989,5.989,0,0,0-.358-1.907,5.567,5.567,0,0,0-3.013-3.013,6.029,6.029,0,0,0-1.907-.358c-.957-.065-2.181-.065-3.934-.065H20.988c-1.753,0-2.978,0-3.934.065Z" transform="translate(0 1.567)" fill="#e78530" fill-rule="evenodd"/>
      <path id="Path_6" data-name="Path 6" d="M8,32.122V30.267l66.8,0v3.717L8,33.978c0-1.119,0-.831,0-1.856ZM26.555,8a1.856,1.856,0,0,1,1.856,1.855v7.423a1.856,1.856,0,0,1-3.712,0V9.855A1.855,1.855,0,0,1,26.555,8Zm29.69,0A1.855,1.855,0,0,1,58.1,9.855v7.423a1.856,1.856,0,0,1-3.712,0V9.855A1.856,1.856,0,0,1,56.245,8Z" transform="translate(0)" fill="#c53a33" fill-rule="evenodd"/>
      <circle id="Ellipse_65" data-name="Ellipse 65" cx="4.712" cy="4.712" r="4.712" transform="translate(19.843 39.4)" fill="#102f47"/>
      <circle id="Ellipse_66" data-name="Ellipse 66" cx="4.712" cy="4.712" r="4.712" transform="translate(36.688 39.4)" fill="#102f47"/>
      <circle id="Ellipse_67" data-name="Ellipse 67" cx="4.712" cy="4.712" r="4.712" transform="translate(53.533 39.4)" fill="#102f47"/>
      <circle id="Ellipse_68" data-name="Ellipse 68" cx="4.712" cy="4.712" r="4.712" transform="translate(19.843 55.245)" fill="#102f47"/>
      <circle id="Ellipse_69" data-name="Ellipse 69" cx="4.712" cy="4.712" r="4.712" transform="translate(36.688 55.244)" fill="#102f47"/>
      <circle id="Ellipse_70" data-name="Ellipse 70" cx="4.712" cy="4.712" r="4.712" transform="translate(53.533 55.245)" fill="#102f47"/>
    </g>
  </g>
</svg>
