<svg xmlns="http://www.w3.org/2000/svg" width="124" height="124" viewBox="0 0 124 124">
  <g id="Group_90" data-name="Group 90" transform="translate(-1451 -1679)">
    <circle id="Ellipse_62" data-name="Ellipse 62" cx="62" cy="62" r="62" transform="translate(1451 1679)" fill="#e9e2bc"/>
    <g id="clock" transform="translate(1449 1677)">
      <circle id="Ellipse_75" data-name="Ellipse 75" cx="34.68" cy="34.68" r="34.68" transform="translate(29.32 29.32)" fill="#eeefee"/>
      <path id="Path_41" data-name="Path 41" d="M65.15,65.81a.84.84,0,0,0,.35-.07.9.9,0,0,0,.46-.5l7.9-21.37a.88.88,0,0,0-.52-1.12.86.86,0,0,0-1.11.52L64.64,63.8,47.39,56.87a.873.873,0,1,0-.65,1.62l18.08,7.26A1,1,0,0,0,65.15,65.81Z" fill="#102f47"/>
      <path id="Path_42" data-name="Path 42" d="M65.14,28.14v4.68A1.14,1.14,0,0,1,64,34h0a1.14,1.14,0,0,1-1.15-1.14V28.14Zm0,71.72V95.19A1.15,1.15,0,0,0,64,94h0a1.15,1.15,0,0,0-1.15,1.15v4.67ZM99.85,65.15H95.18A1.14,1.14,0,0,1,94,64h0a1.15,1.15,0,0,1,1.14-1.15h4.67Zm-71.71,0h4.67A1.15,1.15,0,0,0,34,64h0a1.16,1.16,0,0,0-1.15-1.15H28.14ZM39.45,37.83l3.3,3.31a1.14,1.14,0,0,1,0,1.62h0a1.14,1.14,0,0,1-1.62,0l-3.3-3.3ZM90.16,88.55l-3.3-3.31a1.16,1.16,0,0,0-1.62,0h0a1.15,1.15,0,0,0,0,1.63l3.3,3.3Zm0-49.09-3.3,3.3a1.14,1.14,0,0,1-1.62,0h0a1.14,1.14,0,0,1,0-1.62l3.3-3.31ZM39.45,90.17l3.3-3.3a1.15,1.15,0,0,0,0-1.63h0a1.16,1.16,0,0,0-1.62,0l-3.3,3.31Z" fill="#102f47"/>
      <path id="Path_43" data-name="Path 43" d="M64,23a41,41,0,1,0,41,41A41,41,0,0,0,64,23Zm0,75.68A34.68,34.68,0,1,1,98.67,64,34.68,34.68,0,0,1,64,98.68Z" fill="#0d2539"/>
      <rect id="Rectangle_516" data-name="Rectangle 516" width="1.01" height="32.26" transform="translate(75.968 85.371) rotate(153.66)" fill="#c53a33"/>
      <path id="Path_44" data-name="Path 44" d="M69,64.92a3.89,3.89,0,1,1-3.88-3.85A3.89,3.89,0,0,1,69,64.92Z" fill="#0d2539"/>
      <path id="Path_45" data-name="Path 45" d="M67.13,64.93a2,2,0,1,1-2-2A2,2,0,0,1,67.13,64.93Z" fill="#f2f0ef"/>
    </g>
  </g>
</svg>
